# xmcd CD database file
#
# Track frame offsets:
#	150
#	19632
#	39114
#	58597
#	78079
#	97562
#
# Disc length: 1558 seconds
#
# Revision: 2
# Processed by: cddbd v1.5.2PL0 Copyright (c) Steve Scherf et al.
# Submitted via: CDex 1.70beta3
#
DISCID=2d061406
DTITLE=神のみぞ知り隊 - コイノシルシ
DYEAR=2010
DGENRE=Anime
TTITLE0=コイノシルシ
TTITLE1=コイノシルシ feat. 高原歩美
TTITLE2=コイノシルシ feat. 青山美生
TTITLE3=コイノシルシ feat. 中川かのん
TTITLE4=コイノシルシ feat. 汐宮 栞
TTITLE5=コイノシルシ （Instrumental）
EXTD=YEAR: 2010
EXTT0=
EXTT1=
EXTT2=
EXTT3=
EXTT4=
EXTT5=
PLAYORDER=
